<mxfile host="app.diagrams.net" modified="2024-02-08T23:21:55.305Z" agent="Mozilla/5.0 (Windows NT 10.0; Win64; x64) AppleWebKit/537.36 (KHTML, like Gecko) Chrome/121.0.0.0 Safari/537.36" etag="i8cFt2h-VmlkMuggoGDY" version="23.1.1" type="device">
  <diagram id="R2lEEEUBdFMjLlhIrx00" name="Page-1">
    <mxGraphModel dx="1728" dy="2858" grid="1" gridSize="10" guides="1" tooltips="1" connect="1" arrows="1" fold="1" page="1" pageScale="1" pageWidth="850" pageHeight="1100" math="0" shadow="0" extFonts="Permanent Marker^https://fonts.googleapis.com/css?family=Permanent+Marker">
      <root>
        <mxCell id="0" />
        <mxCell id="1" parent="0" />
        <mxCell id="dRT8ozILV0_iqANmPN8o-3" value="Parent" style="whiteSpace=wrap;html=1;align=center;" vertex="1" parent="1">
          <mxGeometry x="200" y="185" width="100" height="40" as="geometry" />
        </mxCell>
        <mxCell id="dRT8ozILV0_iqANmPN8o-4" style="edgeStyle=orthogonalEdgeStyle;rounded=0;orthogonalLoop=1;jettySize=auto;html=1;exitX=0.5;exitY=1;exitDx=0;exitDy=0;entryX=0.75;entryY=0;entryDx=0;entryDy=0;endArrow=none;endFill=0;" edge="1" parent="1" source="dRT8ozILV0_iqANmPN8o-5" target="dRT8ozILV0_iqANmPN8o-3">
          <mxGeometry relative="1" as="geometry" />
        </mxCell>
        <mxCell id="dRT8ozILV0_iqANmPN8o-5" value="phone_number" style="ellipse;whiteSpace=wrap;html=1;align=center;" vertex="1" parent="1">
          <mxGeometry x="270" y="55" width="100" height="40" as="geometry" />
        </mxCell>
        <mxCell id="dRT8ozILV0_iqANmPN8o-6" style="edgeStyle=orthogonalEdgeStyle;rounded=0;orthogonalLoop=1;jettySize=auto;html=1;exitX=1;exitY=0.5;exitDx=0;exitDy=0;entryX=0;entryY=0.25;entryDx=0;entryDy=0;endArrow=none;endFill=0;" edge="1" parent="1" source="dRT8ozILV0_iqANmPN8o-7" target="dRT8ozILV0_iqANmPN8o-3">
          <mxGeometry relative="1" as="geometry" />
        </mxCell>
        <mxCell id="dRT8ozILV0_iqANmPN8o-7" value="password_hash" style="ellipse;whiteSpace=wrap;html=1;align=center;" vertex="1" parent="1">
          <mxGeometry x="30" y="135" width="100" height="40" as="geometry" />
        </mxCell>
        <mxCell id="dRT8ozILV0_iqANmPN8o-8" style="edgeStyle=orthogonalEdgeStyle;rounded=0;orthogonalLoop=1;jettySize=auto;html=1;exitX=1;exitY=1;exitDx=0;exitDy=0;entryX=0.25;entryY=0;entryDx=0;entryDy=0;endArrow=none;endFill=0;" edge="1" parent="1" source="dRT8ozILV0_iqANmPN8o-9" target="dRT8ozILV0_iqANmPN8o-3">
          <mxGeometry relative="1" as="geometry" />
        </mxCell>
        <mxCell id="dRT8ozILV0_iqANmPN8o-9" value="email" style="ellipse;whiteSpace=wrap;html=1;align=center;" vertex="1" parent="1">
          <mxGeometry x="100" y="85" width="100" height="40" as="geometry" />
        </mxCell>
        <mxCell id="dRT8ozILV0_iqANmPN8o-10" style="edgeStyle=orthogonalEdgeStyle;rounded=0;orthogonalLoop=1;jettySize=auto;html=1;exitX=1;exitY=0.5;exitDx=0;exitDy=0;entryX=0;entryY=0.75;entryDx=0;entryDy=0;endArrow=none;endFill=0;" edge="1" parent="1" source="dRT8ozILV0_iqANmPN8o-11" target="dRT8ozILV0_iqANmPN8o-3">
          <mxGeometry relative="1" as="geometry" />
        </mxCell>
        <mxCell id="dRT8ozILV0_iqANmPN8o-11" value="creation_date" style="ellipse;whiteSpace=wrap;html=1;align=center;" vertex="1" parent="1">
          <mxGeometry x="30" y="195" width="100" height="40" as="geometry" />
        </mxCell>
        <mxCell id="dRT8ozILV0_iqANmPN8o-17" style="edgeStyle=orthogonalEdgeStyle;rounded=0;orthogonalLoop=1;jettySize=auto;html=1;exitX=0.5;exitY=1;exitDx=0;exitDy=0;entryX=0.5;entryY=0;entryDx=0;entryDy=0;endArrow=none;endFill=0;" edge="1" parent="1" source="dRT8ozILV0_iqANmPN8o-18" target="dRT8ozILV0_iqANmPN8o-3">
          <mxGeometry relative="1" as="geometry" />
        </mxCell>
        <mxCell id="dRT8ozILV0_iqANmPN8o-18" value="parent_id" style="ellipse;whiteSpace=wrap;html=1;align=center;fontStyle=4;" vertex="1" parent="1">
          <mxGeometry x="170" y="20" width="100" height="40" as="geometry" />
        </mxCell>
        <mxCell id="dRT8ozILV0_iqANmPN8o-19" value="pref_contact_method" style="ellipse;whiteSpace=wrap;html=1;align=center;" vertex="1" parent="1">
          <mxGeometry x="10" y="260" width="130" height="50" as="geometry" />
        </mxCell>
        <mxCell id="dRT8ozILV0_iqANmPN8o-20" style="edgeStyle=orthogonalEdgeStyle;rounded=0;orthogonalLoop=1;jettySize=auto;html=1;exitX=1;exitY=0.5;exitDx=0;exitDy=0;entryX=0.128;entryY=1.008;entryDx=0;entryDy=0;entryPerimeter=0;endArrow=none;endFill=0;" edge="1" parent="1" source="dRT8ozILV0_iqANmPN8o-19" target="dRT8ozILV0_iqANmPN8o-3">
          <mxGeometry relative="1" as="geometry" />
        </mxCell>
        <mxCell id="dRT8ozILV0_iqANmPN8o-21" value="mailing_ddress" style="ellipse;whiteSpace=wrap;html=1;align=center;" vertex="1" parent="1">
          <mxGeometry x="100" y="320" width="95" height="50" as="geometry" />
        </mxCell>
        <mxCell id="dRT8ozILV0_iqANmPN8o-22" value="first_name" style="ellipse;whiteSpace=wrap;html=1;align=center;" vertex="1" parent="1">
          <mxGeometry x="180" y="370" width="100" height="40" as="geometry" />
        </mxCell>
        <mxCell id="dRT8ozILV0_iqANmPN8o-23" value="last_name" style="ellipse;whiteSpace=wrap;html=1;align=center;" vertex="1" parent="1">
          <mxGeometry x="290" y="380" width="100" height="40" as="geometry" />
        </mxCell>
        <mxCell id="dRT8ozILV0_iqANmPN8o-24" style="edgeStyle=orthogonalEdgeStyle;rounded=0;orthogonalLoop=1;jettySize=auto;html=1;exitX=1;exitY=0.5;exitDx=0;exitDy=0;entryX=0.337;entryY=1.008;entryDx=0;entryDy=0;entryPerimeter=0;endArrow=none;endFill=0;" edge="1" parent="1" source="dRT8ozILV0_iqANmPN8o-21" target="dRT8ozILV0_iqANmPN8o-3">
          <mxGeometry relative="1" as="geometry" />
        </mxCell>
        <mxCell id="dRT8ozILV0_iqANmPN8o-25" style="edgeStyle=orthogonalEdgeStyle;rounded=0;orthogonalLoop=1;jettySize=auto;html=1;exitX=1;exitY=0;exitDx=0;exitDy=0;entryX=0.645;entryY=1.05;entryDx=0;entryDy=0;entryPerimeter=0;endArrow=none;endFill=0;" edge="1" parent="1" source="dRT8ozILV0_iqANmPN8o-22" target="dRT8ozILV0_iqANmPN8o-3">
          <mxGeometry relative="1" as="geometry" />
        </mxCell>
        <mxCell id="dRT8ozILV0_iqANmPN8o-26" style="edgeStyle=orthogonalEdgeStyle;rounded=0;orthogonalLoop=1;jettySize=auto;html=1;exitX=0.5;exitY=0;exitDx=0;exitDy=0;entryX=0.862;entryY=0.988;entryDx=0;entryDy=0;entryPerimeter=0;endArrow=none;endFill=0;" edge="1" parent="1" source="dRT8ozILV0_iqANmPN8o-23" target="dRT8ozILV0_iqANmPN8o-3">
          <mxGeometry relative="1" as="geometry" />
        </mxCell>
        <mxCell id="dRT8ozILV0_iqANmPN8o-27" value="Child" style="whiteSpace=wrap;html=1;align=center;" vertex="1" parent="1">
          <mxGeometry x="220" y="615" width="100" height="40" as="geometry" />
        </mxCell>
        <mxCell id="dRT8ozILV0_iqANmPN8o-51" style="edgeStyle=orthogonalEdgeStyle;rounded=0;orthogonalLoop=1;jettySize=auto;html=1;exitX=1;exitY=0.5;exitDx=0;exitDy=0;entryX=0.25;entryY=0;entryDx=0;entryDy=0;" edge="1" parent="1" source="dRT8ozILV0_iqANmPN8o-35" target="dRT8ozILV0_iqANmPN8o-27">
          <mxGeometry relative="1" as="geometry" />
        </mxCell>
        <mxCell id="dRT8ozILV0_iqANmPN8o-35" value="creation_date" style="ellipse;whiteSpace=wrap;html=1;align=center;" vertex="1" parent="1">
          <mxGeometry x="100" y="530" width="100" height="40" as="geometry" />
        </mxCell>
        <mxCell id="dRT8ozILV0_iqANmPN8o-36" style="edgeStyle=orthogonalEdgeStyle;rounded=0;orthogonalLoop=1;jettySize=auto;html=1;exitX=0.5;exitY=1;exitDx=0;exitDy=0;entryX=0.5;entryY=0;entryDx=0;entryDy=0;endArrow=none;endFill=0;" edge="1" parent="1" source="dRT8ozILV0_iqANmPN8o-37" target="dRT8ozILV0_iqANmPN8o-27">
          <mxGeometry relative="1" as="geometry" />
        </mxCell>
        <mxCell id="dRT8ozILV0_iqANmPN8o-37" value="child_id" style="ellipse;whiteSpace=wrap;html=1;align=center;fontStyle=4;" vertex="1" parent="1">
          <mxGeometry x="220" y="490" width="100" height="40" as="geometry" />
        </mxCell>
        <mxCell id="dRT8ozILV0_iqANmPN8o-50" style="edgeStyle=orthogonalEdgeStyle;rounded=0;orthogonalLoop=1;jettySize=auto;html=1;exitX=1;exitY=0.5;exitDx=0;exitDy=0;entryX=0;entryY=0.5;entryDx=0;entryDy=0;" edge="1" parent="1" source="dRT8ozILV0_iqANmPN8o-41" target="dRT8ozILV0_iqANmPN8o-27">
          <mxGeometry relative="1" as="geometry" />
        </mxCell>
        <mxCell id="dRT8ozILV0_iqANmPN8o-41" value="first_name" style="ellipse;whiteSpace=wrap;html=1;align=center;" vertex="1" parent="1">
          <mxGeometry x="50" y="590" width="100" height="40" as="geometry" />
        </mxCell>
        <mxCell id="dRT8ozILV0_iqANmPN8o-48" style="edgeStyle=orthogonalEdgeStyle;rounded=0;orthogonalLoop=1;jettySize=auto;html=1;exitX=1;exitY=0.5;exitDx=0;exitDy=0;entryX=0.5;entryY=1;entryDx=0;entryDy=0;" edge="1" parent="1" source="dRT8ozILV0_iqANmPN8o-42" target="dRT8ozILV0_iqANmPN8o-27">
          <mxGeometry relative="1" as="geometry">
            <Array as="points">
              <mxPoint x="250" y="760" />
              <mxPoint x="250" y="690" />
              <mxPoint x="270" y="690" />
            </Array>
          </mxGeometry>
        </mxCell>
        <mxCell id="dRT8ozILV0_iqANmPN8o-42" value="last_name" style="ellipse;whiteSpace=wrap;html=1;align=center;" vertex="1" parent="1">
          <mxGeometry x="120" y="740" width="100" height="40" as="geometry" />
        </mxCell>
        <mxCell id="dRT8ozILV0_iqANmPN8o-49" style="edgeStyle=orthogonalEdgeStyle;rounded=0;orthogonalLoop=1;jettySize=auto;html=1;exitX=0.5;exitY=0;exitDx=0;exitDy=0;entryX=0.75;entryY=1;entryDx=0;entryDy=0;" edge="1" parent="1" source="dRT8ozILV0_iqANmPN8o-46" target="dRT8ozILV0_iqANmPN8o-27">
          <mxGeometry relative="1" as="geometry">
            <Array as="points">
              <mxPoint x="270" y="710" />
              <mxPoint x="295" y="710" />
            </Array>
          </mxGeometry>
        </mxCell>
        <mxCell id="dRT8ozILV0_iqANmPN8o-46" value="grade_level" style="ellipse;whiteSpace=wrap;html=1;align=center;" vertex="1" parent="1">
          <mxGeometry x="220" y="780" width="100" height="40" as="geometry" />
        </mxCell>
        <mxCell id="dRT8ozILV0_iqANmPN8o-52" value="age" style="ellipse;whiteSpace=wrap;html=1;align=center;" vertex="1" parent="1">
          <mxGeometry x="90" y="670" width="70" height="40" as="geometry" />
        </mxCell>
        <mxCell id="dRT8ozILV0_iqANmPN8o-53" style="edgeStyle=orthogonalEdgeStyle;rounded=0;orthogonalLoop=1;jettySize=auto;html=1;exitX=1;exitY=0.5;exitDx=0;exitDy=0;entryX=0.137;entryY=1.029;entryDx=0;entryDy=0;entryPerimeter=0;" edge="1" parent="1" source="dRT8ozILV0_iqANmPN8o-52" target="dRT8ozILV0_iqANmPN8o-27">
          <mxGeometry relative="1" as="geometry" />
        </mxCell>
        <mxCell id="dRT8ozILV0_iqANmPN8o-54" value="Tutor" style="whiteSpace=wrap;html=1;align=center;" vertex="1" parent="1">
          <mxGeometry x="210" y="-285" width="100" height="40" as="geometry" />
        </mxCell>
        <mxCell id="dRT8ozILV0_iqANmPN8o-55" style="edgeStyle=orthogonalEdgeStyle;rounded=0;orthogonalLoop=1;jettySize=auto;html=1;exitX=0.5;exitY=1;exitDx=0;exitDy=0;entryX=0.75;entryY=0;entryDx=0;entryDy=0;endArrow=none;endFill=0;" edge="1" parent="1" source="dRT8ozILV0_iqANmPN8o-56" target="dRT8ozILV0_iqANmPN8o-54">
          <mxGeometry relative="1" as="geometry" />
        </mxCell>
        <mxCell id="dRT8ozILV0_iqANmPN8o-56" value="phone_number" style="ellipse;whiteSpace=wrap;html=1;align=center;" vertex="1" parent="1">
          <mxGeometry x="270" y="-450" width="100" height="40" as="geometry" />
        </mxCell>
        <mxCell id="dRT8ozILV0_iqANmPN8o-57" style="edgeStyle=orthogonalEdgeStyle;rounded=0;orthogonalLoop=1;jettySize=auto;html=1;exitX=1;exitY=0.5;exitDx=0;exitDy=0;entryX=0;entryY=0.25;entryDx=0;entryDy=0;endArrow=none;endFill=0;" edge="1" parent="1" source="dRT8ozILV0_iqANmPN8o-58" target="dRT8ozILV0_iqANmPN8o-54">
          <mxGeometry relative="1" as="geometry" />
        </mxCell>
        <mxCell id="dRT8ozILV0_iqANmPN8o-58" value="password_hash" style="ellipse;whiteSpace=wrap;html=1;align=center;" vertex="1" parent="1">
          <mxGeometry x="40" y="-335" width="100" height="40" as="geometry" />
        </mxCell>
        <mxCell id="dRT8ozILV0_iqANmPN8o-60" value="email" style="ellipse;whiteSpace=wrap;html=1;align=center;" vertex="1" parent="1">
          <mxGeometry x="60" y="-410" width="100" height="40" as="geometry" />
        </mxCell>
        <mxCell id="dRT8ozILV0_iqANmPN8o-61" style="edgeStyle=orthogonalEdgeStyle;rounded=0;orthogonalLoop=1;jettySize=auto;html=1;exitX=1;exitY=0.5;exitDx=0;exitDy=0;entryX=0;entryY=0.75;entryDx=0;entryDy=0;endArrow=none;endFill=0;" edge="1" parent="1" source="dRT8ozILV0_iqANmPN8o-62" target="dRT8ozILV0_iqANmPN8o-54">
          <mxGeometry relative="1" as="geometry" />
        </mxCell>
        <mxCell id="dRT8ozILV0_iqANmPN8o-62" value="creation_date" style="ellipse;whiteSpace=wrap;html=1;align=center;" vertex="1" parent="1">
          <mxGeometry x="40" y="-275" width="100" height="40" as="geometry" />
        </mxCell>
        <mxCell id="dRT8ozILV0_iqANmPN8o-63" style="edgeStyle=orthogonalEdgeStyle;rounded=0;orthogonalLoop=1;jettySize=auto;html=1;exitX=0.5;exitY=1;exitDx=0;exitDy=0;entryX=0.5;entryY=0;entryDx=0;entryDy=0;endArrow=none;endFill=0;" edge="1" parent="1" source="dRT8ozILV0_iqANmPN8o-64" target="dRT8ozILV0_iqANmPN8o-54">
          <mxGeometry relative="1" as="geometry" />
        </mxCell>
        <mxCell id="dRT8ozILV0_iqANmPN8o-64" value="tutor_id" style="ellipse;whiteSpace=wrap;html=1;align=center;fontStyle=4;" vertex="1" parent="1">
          <mxGeometry x="210" y="-520" width="100" height="40" as="geometry" />
        </mxCell>
        <mxCell id="dRT8ozILV0_iqANmPN8o-65" value="pref_contact_method" style="ellipse;whiteSpace=wrap;html=1;align=center;" vertex="1" parent="1">
          <mxGeometry x="10" y="-210" width="140" height="50" as="geometry" />
        </mxCell>
        <mxCell id="dRT8ozILV0_iqANmPN8o-66" style="edgeStyle=orthogonalEdgeStyle;rounded=0;orthogonalLoop=1;jettySize=auto;html=1;exitX=1;exitY=0.5;exitDx=0;exitDy=0;entryX=0.128;entryY=1.008;entryDx=0;entryDy=0;entryPerimeter=0;endArrow=none;endFill=0;" edge="1" parent="1" source="dRT8ozILV0_iqANmPN8o-65" target="dRT8ozILV0_iqANmPN8o-54">
          <mxGeometry relative="1" as="geometry" />
        </mxCell>
        <mxCell id="dRT8ozILV0_iqANmPN8o-68" value="first_name" style="ellipse;whiteSpace=wrap;html=1;align=center;" vertex="1" parent="1">
          <mxGeometry x="160" y="-160" width="100" height="40" as="geometry" />
        </mxCell>
        <mxCell id="dRT8ozILV0_iqANmPN8o-69" value="last_name" style="ellipse;whiteSpace=wrap;html=1;align=center;" vertex="1" parent="1">
          <mxGeometry x="240" y="-110" width="100" height="40" as="geometry" />
        </mxCell>
        <mxCell id="dRT8ozILV0_iqANmPN8o-71" style="edgeStyle=orthogonalEdgeStyle;rounded=0;orthogonalLoop=1;jettySize=auto;html=1;exitX=1;exitY=0;exitDx=0;exitDy=0;entryX=0.645;entryY=1.05;entryDx=0;entryDy=0;entryPerimeter=0;endArrow=none;endFill=0;" edge="1" parent="1" source="dRT8ozILV0_iqANmPN8o-68" target="dRT8ozILV0_iqANmPN8o-54">
          <mxGeometry relative="1" as="geometry" />
        </mxCell>
        <mxCell id="dRT8ozILV0_iqANmPN8o-72" style="edgeStyle=orthogonalEdgeStyle;rounded=0;orthogonalLoop=1;jettySize=auto;html=1;exitX=0.5;exitY=0;exitDx=0;exitDy=0;entryX=0.862;entryY=0.988;entryDx=0;entryDy=0;entryPerimeter=0;endArrow=none;endFill=0;" edge="1" parent="1" source="dRT8ozILV0_iqANmPN8o-69" target="dRT8ozILV0_iqANmPN8o-54">
          <mxGeometry relative="1" as="geometry" />
        </mxCell>
        <mxCell id="dRT8ozILV0_iqANmPN8o-73" value="bsu_id" style="ellipse;whiteSpace=wrap;html=1;align=center;" vertex="1" parent="1">
          <mxGeometry x="100" y="-490" width="100" height="40" as="geometry" />
        </mxCell>
        <mxCell id="dRT8ozILV0_iqANmPN8o-75" style="edgeStyle=orthogonalEdgeStyle;rounded=0;orthogonalLoop=1;jettySize=auto;html=1;exitX=0.5;exitY=1;exitDx=0;exitDy=0;entryX=0.128;entryY=0.008;entryDx=0;entryDy=0;entryPerimeter=0;" edge="1" parent="1" source="dRT8ozILV0_iqANmPN8o-60" target="dRT8ozILV0_iqANmPN8o-54">
          <mxGeometry relative="1" as="geometry">
            <Array as="points">
              <mxPoint x="110" y="-350" />
              <mxPoint x="223" y="-350" />
            </Array>
          </mxGeometry>
        </mxCell>
        <mxCell id="dRT8ozILV0_iqANmPN8o-76" style="edgeStyle=orthogonalEdgeStyle;rounded=0;orthogonalLoop=1;jettySize=auto;html=1;exitX=0.5;exitY=1;exitDx=0;exitDy=0;entryX=0.32;entryY=0.05;entryDx=0;entryDy=0;entryPerimeter=0;" edge="1" parent="1" source="dRT8ozILV0_iqANmPN8o-73" target="dRT8ozILV0_iqANmPN8o-54">
          <mxGeometry relative="1" as="geometry">
            <Array as="points">
              <mxPoint x="150" y="-420" />
              <mxPoint x="242" y="-420" />
            </Array>
          </mxGeometry>
        </mxCell>
        <mxCell id="dRT8ozILV0_iqANmPN8o-77" value="Instructor" style="whiteSpace=wrap;html=1;align=center;" vertex="1" parent="1">
          <mxGeometry x="230" y="-775" width="100" height="40" as="geometry" />
        </mxCell>
        <mxCell id="dRT8ozILV0_iqANmPN8o-78" style="edgeStyle=orthogonalEdgeStyle;rounded=0;orthogonalLoop=1;jettySize=auto;html=1;exitX=0.5;exitY=1;exitDx=0;exitDy=0;entryX=0.75;entryY=0;entryDx=0;entryDy=0;endArrow=none;endFill=0;" edge="1" parent="1" source="dRT8ozILV0_iqANmPN8o-79" target="dRT8ozILV0_iqANmPN8o-77">
          <mxGeometry relative="1" as="geometry" />
        </mxCell>
        <mxCell id="dRT8ozILV0_iqANmPN8o-79" value="phone_number" style="ellipse;whiteSpace=wrap;html=1;align=center;" vertex="1" parent="1">
          <mxGeometry x="290" y="-940" width="100" height="40" as="geometry" />
        </mxCell>
        <mxCell id="dRT8ozILV0_iqANmPN8o-80" style="edgeStyle=orthogonalEdgeStyle;rounded=0;orthogonalLoop=1;jettySize=auto;html=1;exitX=1;exitY=0.5;exitDx=0;exitDy=0;entryX=0;entryY=0.25;entryDx=0;entryDy=0;endArrow=none;endFill=0;" edge="1" parent="1" source="dRT8ozILV0_iqANmPN8o-81" target="dRT8ozILV0_iqANmPN8o-77">
          <mxGeometry relative="1" as="geometry" />
        </mxCell>
        <mxCell id="dRT8ozILV0_iqANmPN8o-81" value="password_hash" style="ellipse;whiteSpace=wrap;html=1;align=center;" vertex="1" parent="1">
          <mxGeometry x="60" y="-825" width="100" height="40" as="geometry" />
        </mxCell>
        <mxCell id="dRT8ozILV0_iqANmPN8o-82" value="email" style="ellipse;whiteSpace=wrap;html=1;align=center;" vertex="1" parent="1">
          <mxGeometry x="80" y="-900" width="100" height="40" as="geometry" />
        </mxCell>
        <mxCell id="dRT8ozILV0_iqANmPN8o-83" style="edgeStyle=orthogonalEdgeStyle;rounded=0;orthogonalLoop=1;jettySize=auto;html=1;exitX=1;exitY=0.5;exitDx=0;exitDy=0;entryX=0;entryY=0.75;entryDx=0;entryDy=0;endArrow=none;endFill=0;" edge="1" parent="1" source="dRT8ozILV0_iqANmPN8o-84" target="dRT8ozILV0_iqANmPN8o-77">
          <mxGeometry relative="1" as="geometry" />
        </mxCell>
        <mxCell id="dRT8ozILV0_iqANmPN8o-84" value="creation_date" style="ellipse;whiteSpace=wrap;html=1;align=center;" vertex="1" parent="1">
          <mxGeometry x="60" y="-765" width="100" height="40" as="geometry" />
        </mxCell>
        <mxCell id="dRT8ozILV0_iqANmPN8o-85" style="edgeStyle=orthogonalEdgeStyle;rounded=0;orthogonalLoop=1;jettySize=auto;html=1;exitX=0.5;exitY=1;exitDx=0;exitDy=0;entryX=0.5;entryY=0;entryDx=0;entryDy=0;endArrow=none;endFill=0;" edge="1" parent="1" source="dRT8ozILV0_iqANmPN8o-86" target="dRT8ozILV0_iqANmPN8o-77">
          <mxGeometry relative="1" as="geometry" />
        </mxCell>
        <mxCell id="dRT8ozILV0_iqANmPN8o-86" value="instructor_id" style="ellipse;whiteSpace=wrap;html=1;align=center;fontStyle=4;" vertex="1" parent="1">
          <mxGeometry x="230" y="-1010" width="100" height="40" as="geometry" />
        </mxCell>
        <mxCell id="dRT8ozILV0_iqANmPN8o-87" value="pref_contact_method" style="ellipse;whiteSpace=wrap;html=1;align=center;" vertex="1" parent="1">
          <mxGeometry x="30" y="-720" width="140" height="50" as="geometry" />
        </mxCell>
        <mxCell id="dRT8ozILV0_iqANmPN8o-88" style="edgeStyle=orthogonalEdgeStyle;rounded=0;orthogonalLoop=1;jettySize=auto;html=1;exitX=1;exitY=0.5;exitDx=0;exitDy=0;entryX=0.128;entryY=1.008;entryDx=0;entryDy=0;entryPerimeter=0;endArrow=none;endFill=0;" edge="1" parent="1" source="dRT8ozILV0_iqANmPN8o-87" target="dRT8ozILV0_iqANmPN8o-77">
          <mxGeometry relative="1" as="geometry" />
        </mxCell>
        <mxCell id="dRT8ozILV0_iqANmPN8o-89" value="first_name" style="ellipse;whiteSpace=wrap;html=1;align=center;" vertex="1" parent="1">
          <mxGeometry x="140" y="-590" width="100" height="40" as="geometry" />
        </mxCell>
        <mxCell id="dRT8ozILV0_iqANmPN8o-90" value="last_name" style="ellipse;whiteSpace=wrap;html=1;align=center;" vertex="1" parent="1">
          <mxGeometry x="260" y="-600" width="100" height="40" as="geometry" />
        </mxCell>
        <mxCell id="dRT8ozILV0_iqANmPN8o-91" style="edgeStyle=orthogonalEdgeStyle;rounded=0;orthogonalLoop=1;jettySize=auto;html=1;exitX=1;exitY=0;exitDx=0;exitDy=0;entryX=0.645;entryY=1.05;entryDx=0;entryDy=0;entryPerimeter=0;endArrow=none;endFill=0;" edge="1" parent="1" source="dRT8ozILV0_iqANmPN8o-89" target="dRT8ozILV0_iqANmPN8o-77">
          <mxGeometry relative="1" as="geometry">
            <Array as="points">
              <mxPoint x="225" y="-620" />
              <mxPoint x="295" y="-620" />
            </Array>
          </mxGeometry>
        </mxCell>
        <mxCell id="dRT8ozILV0_iqANmPN8o-92" style="edgeStyle=orthogonalEdgeStyle;rounded=0;orthogonalLoop=1;jettySize=auto;html=1;exitX=0.5;exitY=0;exitDx=0;exitDy=0;entryX=0.862;entryY=0.988;entryDx=0;entryDy=0;entryPerimeter=0;endArrow=none;endFill=0;" edge="1" parent="1" source="dRT8ozILV0_iqANmPN8o-90" target="dRT8ozILV0_iqANmPN8o-77">
          <mxGeometry relative="1" as="geometry" />
        </mxCell>
        <mxCell id="dRT8ozILV0_iqANmPN8o-93" value="bsu_id" style="ellipse;whiteSpace=wrap;html=1;align=center;" vertex="1" parent="1">
          <mxGeometry x="120" y="-980" width="100" height="40" as="geometry" />
        </mxCell>
        <mxCell id="dRT8ozILV0_iqANmPN8o-94" style="edgeStyle=orthogonalEdgeStyle;rounded=0;orthogonalLoop=1;jettySize=auto;html=1;exitX=0.5;exitY=1;exitDx=0;exitDy=0;entryX=0.128;entryY=0.008;entryDx=0;entryDy=0;entryPerimeter=0;" edge="1" parent="1" source="dRT8ozILV0_iqANmPN8o-82" target="dRT8ozILV0_iqANmPN8o-77">
          <mxGeometry relative="1" as="geometry">
            <Array as="points">
              <mxPoint x="130" y="-840" />
              <mxPoint x="243" y="-840" />
            </Array>
          </mxGeometry>
        </mxCell>
        <mxCell id="dRT8ozILV0_iqANmPN8o-95" style="edgeStyle=orthogonalEdgeStyle;rounded=0;orthogonalLoop=1;jettySize=auto;html=1;exitX=0.5;exitY=1;exitDx=0;exitDy=0;entryX=0.32;entryY=0.05;entryDx=0;entryDy=0;entryPerimeter=0;" edge="1" parent="1" source="dRT8ozILV0_iqANmPN8o-93" target="dRT8ozILV0_iqANmPN8o-77">
          <mxGeometry relative="1" as="geometry">
            <Array as="points">
              <mxPoint x="170" y="-910" />
              <mxPoint x="262" y="-910" />
            </Array>
          </mxGeometry>
        </mxCell>
        <mxCell id="dRT8ozILV0_iqANmPN8o-115" value="is_admin" style="ellipse;whiteSpace=wrap;html=1;align=center;" vertex="1" parent="1">
          <mxGeometry x="80" y="-650" width="100" height="40" as="geometry" />
        </mxCell>
        <mxCell id="dRT8ozILV0_iqANmPN8o-117" style="edgeStyle=orthogonalEdgeStyle;rounded=0;orthogonalLoop=1;jettySize=auto;html=1;exitX=1;exitY=0.5;exitDx=0;exitDy=0;entryX=0.378;entryY=0.988;entryDx=0;entryDy=0;entryPerimeter=0;" edge="1" parent="1" source="dRT8ozILV0_iqANmPN8o-115" target="dRT8ozILV0_iqANmPN8o-77">
          <mxGeometry relative="1" as="geometry">
            <Array as="points">
              <mxPoint x="210" y="-630" />
              <mxPoint x="210" y="-670" />
              <mxPoint x="268" y="-670" />
            </Array>
          </mxGeometry>
        </mxCell>
        <mxCell id="dRT8ozILV0_iqANmPN8o-118" value="App_for_tutoring" style="whiteSpace=wrap;html=1;align=center;" vertex="1" parent="1">
          <mxGeometry x="1030" y="15" width="110" height="40" as="geometry" />
        </mxCell>
        <mxCell id="dRT8ozILV0_iqANmPN8o-119" style="edgeStyle=orthogonalEdgeStyle;rounded=0;orthogonalLoop=1;jettySize=auto;html=1;exitX=0.5;exitY=1;exitDx=0;exitDy=0;entryX=0.75;entryY=0;entryDx=0;entryDy=0;endArrow=none;endFill=0;" edge="1" parent="1" source="dRT8ozILV0_iqANmPN8o-120" target="dRT8ozILV0_iqANmPN8o-118">
          <mxGeometry relative="1" as="geometry" />
        </mxCell>
        <mxCell id="dRT8ozILV0_iqANmPN8o-120" value="parent_id" style="ellipse;whiteSpace=wrap;html=1;align=center;" vertex="1" parent="1">
          <mxGeometry x="1100" y="-150" width="100" height="40" as="geometry" />
        </mxCell>
        <mxCell id="dRT8ozILV0_iqANmPN8o-134" style="edgeStyle=orthogonalEdgeStyle;rounded=0;orthogonalLoop=1;jettySize=auto;html=1;exitX=0.5;exitY=0;exitDx=0;exitDy=0;entryX=0.25;entryY=1;entryDx=0;entryDy=0;" edge="1" parent="1" source="dRT8ozILV0_iqANmPN8o-122" target="dRT8ozILV0_iqANmPN8o-118">
          <mxGeometry relative="1" as="geometry" />
        </mxCell>
        <mxCell id="dRT8ozILV0_iqANmPN8o-122" value="q1_response" style="ellipse;whiteSpace=wrap;html=1;align=center;" vertex="1" parent="1">
          <mxGeometry x="980" y="145" width="100" height="40" as="geometry" />
        </mxCell>
        <mxCell id="dRT8ozILV0_iqANmPN8o-123" value="app_id" style="ellipse;whiteSpace=wrap;html=1;align=center;" vertex="1" parent="1">
          <mxGeometry x="930" y="-140" width="100" height="40" as="geometry" />
        </mxCell>
        <mxCell id="dRT8ozILV0_iqANmPN8o-131" style="edgeStyle=orthogonalEdgeStyle;rounded=0;orthogonalLoop=1;jettySize=auto;html=1;exitX=0.5;exitY=1;exitDx=0;exitDy=0;entryX=0.5;entryY=0;entryDx=0;entryDy=0;" edge="1" parent="1" source="dRT8ozILV0_iqANmPN8o-128" target="dRT8ozILV0_iqANmPN8o-118">
          <mxGeometry relative="1" as="geometry" />
        </mxCell>
        <mxCell id="dRT8ozILV0_iqANmPN8o-128" value="child_id" style="ellipse;whiteSpace=wrap;html=1;align=center;" vertex="1" parent="1">
          <mxGeometry x="1020" y="-205" width="100" height="40" as="geometry" />
        </mxCell>
        <mxCell id="dRT8ozILV0_iqANmPN8o-129" style="edgeStyle=orthogonalEdgeStyle;rounded=0;orthogonalLoop=1;jettySize=auto;html=1;exitX=0.5;exitY=1;exitDx=0;exitDy=0;entryX=0.128;entryY=0.008;entryDx=0;entryDy=0;entryPerimeter=0;" edge="1" parent="1" source="dRT8ozILV0_iqANmPN8o-123" target="dRT8ozILV0_iqANmPN8o-118">
          <mxGeometry relative="1" as="geometry">
            <Array as="points">
              <mxPoint x="980" y="-50" />
              <mxPoint x="1044" y="-50" />
            </Array>
          </mxGeometry>
        </mxCell>
        <mxCell id="dRT8ozILV0_iqANmPN8o-135" style="edgeStyle=orthogonalEdgeStyle;rounded=0;orthogonalLoop=1;jettySize=auto;html=1;exitX=0.5;exitY=0;exitDx=0;exitDy=0;" edge="1" parent="1" source="dRT8ozILV0_iqANmPN8o-132" target="dRT8ozILV0_iqANmPN8o-118">
          <mxGeometry relative="1" as="geometry">
            <Array as="points">
              <mxPoint x="1140" y="120" />
              <mxPoint x="1090" y="120" />
            </Array>
          </mxGeometry>
        </mxCell>
        <mxCell id="dRT8ozILV0_iqANmPN8o-132" value="q2_response" style="ellipse;whiteSpace=wrap;html=1;align=center;" vertex="1" parent="1">
          <mxGeometry x="1090" y="145" width="100" height="40" as="geometry" />
        </mxCell>
        <mxCell id="dRT8ozILV0_iqANmPN8o-136" style="edgeStyle=orthogonalEdgeStyle;rounded=0;orthogonalLoop=1;jettySize=auto;html=1;exitX=0.5;exitY=0;exitDx=0;exitDy=0;entryX=0.75;entryY=1;entryDx=0;entryDy=0;" edge="1" parent="1" source="dRT8ozILV0_iqANmPN8o-133" target="dRT8ozILV0_iqANmPN8o-118">
          <mxGeometry relative="1" as="geometry">
            <Array as="points">
              <mxPoint x="1265" y="90" />
              <mxPoint x="1113" y="90" />
              <mxPoint x="1113" y="55" />
            </Array>
          </mxGeometry>
        </mxCell>
        <mxCell id="dRT8ozILV0_iqANmPN8o-133" value="q3_response (and so on)" style="ellipse;whiteSpace=wrap;html=1;align=center;" vertex="1" parent="1">
          <mxGeometry x="1200" y="145" width="130" height="65" as="geometry" />
        </mxCell>
        <mxCell id="dRT8ozILV0_iqANmPN8o-140" style="edgeStyle=orthogonalEdgeStyle;rounded=0;orthogonalLoop=1;jettySize=auto;html=1;exitX=0;exitY=0.5;exitDx=0;exitDy=0;entryX=1;entryY=0.25;entryDx=0;entryDy=0;" edge="1" parent="1" source="dRT8ozILV0_iqANmPN8o-137" target="dRT8ozILV0_iqANmPN8o-118">
          <mxGeometry relative="1" as="geometry" />
        </mxCell>
        <mxCell id="dRT8ozILV0_iqANmPN8o-137" value="app_compl_date" style="ellipse;whiteSpace=wrap;html=1;align=center;" vertex="1" parent="1">
          <mxGeometry x="1200" y="-90" width="110" height="50" as="geometry" />
        </mxCell>
        <mxCell id="dRT8ozILV0_iqANmPN8o-139" style="edgeStyle=orthogonalEdgeStyle;rounded=0;orthogonalLoop=1;jettySize=auto;html=1;exitX=0;exitY=0.5;exitDx=0;exitDy=0;entryX=1;entryY=0.75;entryDx=0;entryDy=0;" edge="1" parent="1" source="dRT8ozILV0_iqANmPN8o-138" target="dRT8ozILV0_iqANmPN8o-118">
          <mxGeometry relative="1" as="geometry" />
        </mxCell>
        <mxCell id="dRT8ozILV0_iqANmPN8o-138" value="desired_tutor_semester_id" style="ellipse;whiteSpace=wrap;html=1;align=center;" vertex="1" parent="1">
          <mxGeometry x="1230" y="-20" width="160" height="70" as="geometry" />
        </mxCell>
        <mxCell id="dRT8ozILV0_iqANmPN8o-141" value="EOS_parent_survey" style="whiteSpace=wrap;html=1;align=center;" vertex="1" parent="1">
          <mxGeometry x="1000" y="-440" width="140" height="40" as="geometry" />
        </mxCell>
        <mxCell id="dRT8ozILV0_iqANmPN8o-142" style="edgeStyle=orthogonalEdgeStyle;rounded=0;orthogonalLoop=1;jettySize=auto;html=1;exitX=0.5;exitY=1;exitDx=0;exitDy=0;entryX=0.75;entryY=0;entryDx=0;entryDy=0;endArrow=none;endFill=0;" edge="1" parent="1" source="dRT8ozILV0_iqANmPN8o-143" target="dRT8ozILV0_iqANmPN8o-141">
          <mxGeometry relative="1" as="geometry" />
        </mxCell>
        <mxCell id="dRT8ozILV0_iqANmPN8o-143" value="parent_id" style="ellipse;whiteSpace=wrap;html=1;align=center;" vertex="1" parent="1">
          <mxGeometry x="1100" y="-605" width="100" height="40" as="geometry" />
        </mxCell>
        <mxCell id="dRT8ozILV0_iqANmPN8o-144" style="edgeStyle=orthogonalEdgeStyle;rounded=0;orthogonalLoop=1;jettySize=auto;html=1;exitX=0.5;exitY=0;exitDx=0;exitDy=0;entryX=0.25;entryY=1;entryDx=0;entryDy=0;" edge="1" parent="1" source="dRT8ozILV0_iqANmPN8o-145" target="dRT8ozILV0_iqANmPN8o-141">
          <mxGeometry relative="1" as="geometry" />
        </mxCell>
        <mxCell id="dRT8ozILV0_iqANmPN8o-145" value="q1_response" style="ellipse;whiteSpace=wrap;html=1;align=center;" vertex="1" parent="1">
          <mxGeometry x="980" y="-310" width="100" height="40" as="geometry" />
        </mxCell>
        <mxCell id="dRT8ozILV0_iqANmPN8o-146" value="survey_id" style="ellipse;whiteSpace=wrap;html=1;align=center;" vertex="1" parent="1">
          <mxGeometry x="930" y="-595" width="100" height="40" as="geometry" />
        </mxCell>
        <mxCell id="dRT8ozILV0_iqANmPN8o-147" style="edgeStyle=orthogonalEdgeStyle;rounded=0;orthogonalLoop=1;jettySize=auto;html=1;exitX=0.5;exitY=1;exitDx=0;exitDy=0;entryX=0.5;entryY=0;entryDx=0;entryDy=0;" edge="1" parent="1" source="dRT8ozILV0_iqANmPN8o-148" target="dRT8ozILV0_iqANmPN8o-141">
          <mxGeometry relative="1" as="geometry" />
        </mxCell>
        <mxCell id="dRT8ozILV0_iqANmPN8o-148" value="child_id" style="ellipse;whiteSpace=wrap;html=1;align=center;" vertex="1" parent="1">
          <mxGeometry x="1020" y="-645" width="100" height="40" as="geometry" />
        </mxCell>
        <mxCell id="dRT8ozILV0_iqANmPN8o-149" style="edgeStyle=orthogonalEdgeStyle;rounded=0;orthogonalLoop=1;jettySize=auto;html=1;exitX=0.5;exitY=1;exitDx=0;exitDy=0;entryX=0.128;entryY=0.008;entryDx=0;entryDy=0;entryPerimeter=0;" edge="1" parent="1" source="dRT8ozILV0_iqANmPN8o-146" target="dRT8ozILV0_iqANmPN8o-141">
          <mxGeometry relative="1" as="geometry">
            <Array as="points">
              <mxPoint x="980" y="-505" />
              <mxPoint x="1053" y="-505" />
            </Array>
          </mxGeometry>
        </mxCell>
        <mxCell id="dRT8ozILV0_iqANmPN8o-159" style="edgeStyle=orthogonalEdgeStyle;rounded=0;orthogonalLoop=1;jettySize=auto;html=1;exitX=0.5;exitY=0;exitDx=0;exitDy=0;entryX=0.5;entryY=1;entryDx=0;entryDy=0;" edge="1" parent="1" source="dRT8ozILV0_iqANmPN8o-151" target="dRT8ozILV0_iqANmPN8o-141">
          <mxGeometry relative="1" as="geometry">
            <Array as="points">
              <mxPoint x="1140" y="-340" />
              <mxPoint x="1070" y="-340" />
            </Array>
          </mxGeometry>
        </mxCell>
        <mxCell id="dRT8ozILV0_iqANmPN8o-151" value="q2_response" style="ellipse;whiteSpace=wrap;html=1;align=center;" vertex="1" parent="1">
          <mxGeometry x="1090" y="-310" width="100" height="40" as="geometry" />
        </mxCell>
        <mxCell id="dRT8ozILV0_iqANmPN8o-158" style="edgeStyle=orthogonalEdgeStyle;rounded=0;orthogonalLoop=1;jettySize=auto;html=1;exitX=0.5;exitY=0;exitDx=0;exitDy=0;entryX=0.75;entryY=1;entryDx=0;entryDy=0;" edge="1" parent="1" source="dRT8ozILV0_iqANmPN8o-153" target="dRT8ozILV0_iqANmPN8o-141">
          <mxGeometry relative="1" as="geometry">
            <Array as="points">
              <mxPoint x="1265" y="-370" />
              <mxPoint x="1105" y="-370" />
            </Array>
          </mxGeometry>
        </mxCell>
        <mxCell id="dRT8ozILV0_iqANmPN8o-153" value="q3_response (and so on)" style="ellipse;whiteSpace=wrap;html=1;align=center;" vertex="1" parent="1">
          <mxGeometry x="1200" y="-310" width="130" height="65" as="geometry" />
        </mxCell>
        <mxCell id="dRT8ozILV0_iqANmPN8o-154" style="edgeStyle=orthogonalEdgeStyle;rounded=0;orthogonalLoop=1;jettySize=auto;html=1;exitX=0;exitY=0.5;exitDx=0;exitDy=0;entryX=1;entryY=0.25;entryDx=0;entryDy=0;" edge="1" parent="1" source="dRT8ozILV0_iqANmPN8o-155" target="dRT8ozILV0_iqANmPN8o-141">
          <mxGeometry relative="1" as="geometry" />
        </mxCell>
        <mxCell id="dRT8ozILV0_iqANmPN8o-155" value="survey_compl_date" style="ellipse;whiteSpace=wrap;html=1;align=center;" vertex="1" parent="1">
          <mxGeometry x="1200" y="-540" width="120" height="45" as="geometry" />
        </mxCell>
        <mxCell id="dRT8ozILV0_iqANmPN8o-156" style="edgeStyle=orthogonalEdgeStyle;rounded=0;orthogonalLoop=1;jettySize=auto;html=1;exitX=0;exitY=0.5;exitDx=0;exitDy=0;entryX=1;entryY=0.75;entryDx=0;entryDy=0;" edge="1" parent="1" source="dRT8ozILV0_iqANmPN8o-157" target="dRT8ozILV0_iqANmPN8o-141">
          <mxGeometry relative="1" as="geometry" />
        </mxCell>
        <mxCell id="dRT8ozILV0_iqANmPN8o-157" value="semester_id" style="ellipse;whiteSpace=wrap;html=1;align=center;" vertex="1" parent="1">
          <mxGeometry x="1230" y="-475" width="130" height="60" as="geometry" />
        </mxCell>
        <mxCell id="dRT8ozILV0_iqANmPN8o-160" value="Semester_tutoring_obj" style="whiteSpace=wrap;html=1;align=center;" vertex="1" parent="1">
          <mxGeometry x="1030" y="-950" width="140" height="40" as="geometry" />
        </mxCell>
        <mxCell id="dRT8ozILV0_iqANmPN8o-161" style="edgeStyle=orthogonalEdgeStyle;rounded=0;orthogonalLoop=1;jettySize=auto;html=1;exitX=0.5;exitY=1;exitDx=0;exitDy=0;entryX=0.75;entryY=0;entryDx=0;entryDy=0;endArrow=none;endFill=0;" edge="1" parent="1" source="dRT8ozILV0_iqANmPN8o-162" target="dRT8ozILV0_iqANmPN8o-160">
          <mxGeometry relative="1" as="geometry" />
        </mxCell>
        <mxCell id="dRT8ozILV0_iqANmPN8o-162" value="parent_id" style="ellipse;whiteSpace=wrap;html=1;align=center;" vertex="1" parent="1">
          <mxGeometry x="1130" y="-1095" width="100" height="40" as="geometry" />
        </mxCell>
        <mxCell id="dRT8ozILV0_iqANmPN8o-163" style="edgeStyle=orthogonalEdgeStyle;rounded=0;orthogonalLoop=1;jettySize=auto;html=1;exitX=0.5;exitY=0;exitDx=0;exitDy=0;entryX=0.25;entryY=1;entryDx=0;entryDy=0;endArrow=none;endFill=0;" edge="1" parent="1" source="dRT8ozILV0_iqANmPN8o-164" target="dRT8ozILV0_iqANmPN8o-160">
          <mxGeometry relative="1" as="geometry" />
        </mxCell>
        <mxCell id="dRT8ozILV0_iqANmPN8o-164" value="semster_id" style="ellipse;whiteSpace=wrap;html=1;align=center;" vertex="1" parent="1">
          <mxGeometry x="1010" y="-820" width="100" height="40" as="geometry" />
        </mxCell>
        <mxCell id="dRT8ozILV0_iqANmPN8o-165" value="Sem_tutoring_id" style="ellipse;whiteSpace=wrap;html=1;align=center;" vertex="1" parent="1">
          <mxGeometry x="960" y="-1105" width="100" height="40" as="geometry" />
        </mxCell>
        <mxCell id="dRT8ozILV0_iqANmPN8o-166" style="edgeStyle=orthogonalEdgeStyle;rounded=0;orthogonalLoop=1;jettySize=auto;html=1;exitX=0.5;exitY=1;exitDx=0;exitDy=0;entryX=0.5;entryY=0;entryDx=0;entryDy=0;endArrow=none;endFill=0;" edge="1" parent="1" source="dRT8ozILV0_iqANmPN8o-167" target="dRT8ozILV0_iqANmPN8o-160">
          <mxGeometry relative="1" as="geometry" />
        </mxCell>
        <mxCell id="dRT8ozILV0_iqANmPN8o-167" value="child_id" style="ellipse;whiteSpace=wrap;html=1;align=center;" vertex="1" parent="1">
          <mxGeometry x="1050" y="-1145" width="100" height="40" as="geometry" />
        </mxCell>
        <mxCell id="dRT8ozILV0_iqANmPN8o-168" style="edgeStyle=orthogonalEdgeStyle;rounded=0;orthogonalLoop=1;jettySize=auto;html=1;exitX=0.5;exitY=1;exitDx=0;exitDy=0;entryX=0.128;entryY=0.008;entryDx=0;entryDy=0;entryPerimeter=0;endArrow=none;endFill=0;" edge="1" parent="1" source="dRT8ozILV0_iqANmPN8o-165" target="dRT8ozILV0_iqANmPN8o-160">
          <mxGeometry relative="1" as="geometry">
            <Array as="points">
              <mxPoint x="1010" y="-1015" />
              <mxPoint x="1060" y="-1015" />
              <mxPoint x="1060" y="-950" />
            </Array>
          </mxGeometry>
        </mxCell>
        <mxCell id="dRT8ozILV0_iqANmPN8o-169" style="edgeStyle=orthogonalEdgeStyle;rounded=0;orthogonalLoop=1;jettySize=auto;html=1;exitX=0.5;exitY=0;exitDx=0;exitDy=0;entryX=0.5;entryY=1;entryDx=0;entryDy=0;endArrow=none;endFill=0;" edge="1" parent="1" source="dRT8ozILV0_iqANmPN8o-170" target="dRT8ozILV0_iqANmPN8o-160">
          <mxGeometry relative="1" as="geometry">
            <Array as="points">
              <mxPoint x="1170" y="-850" />
              <mxPoint x="1100" y="-850" />
            </Array>
          </mxGeometry>
        </mxCell>
        <mxCell id="dRT8ozILV0_iqANmPN8o-170" value="EOS_report_pdf_path" style="ellipse;whiteSpace=wrap;html=1;align=center;" vertex="1" parent="1">
          <mxGeometry x="1100" y="-780" width="130" height="60" as="geometry" />
        </mxCell>
        <mxCell id="dRT8ozILV0_iqANmPN8o-173" style="edgeStyle=orthogonalEdgeStyle;rounded=0;orthogonalLoop=1;jettySize=auto;html=1;exitX=0;exitY=0.5;exitDx=0;exitDy=0;entryX=1;entryY=0.25;entryDx=0;entryDy=0;endArrow=none;endFill=0;" edge="1" parent="1" source="dRT8ozILV0_iqANmPN8o-174" target="dRT8ozILV0_iqANmPN8o-160">
          <mxGeometry relative="1" as="geometry" />
        </mxCell>
        <mxCell id="dRT8ozILV0_iqANmPN8o-174" value="EOS_parent_survey_done" style="ellipse;whiteSpace=wrap;html=1;align=center;" vertex="1" parent="1">
          <mxGeometry x="1230" y="-1065" width="170" height="60" as="geometry" />
        </mxCell>
        <mxCell id="dRT8ozILV0_iqANmPN8o-175" style="edgeStyle=orthogonalEdgeStyle;rounded=0;orthogonalLoop=1;jettySize=auto;html=1;exitX=0;exitY=0.5;exitDx=0;exitDy=0;entryX=1;entryY=0.75;entryDx=0;entryDy=0;endArrow=none;endFill=0;" edge="1" parent="1" source="dRT8ozILV0_iqANmPN8o-176" target="dRT8ozILV0_iqANmPN8o-160">
          <mxGeometry relative="1" as="geometry" />
        </mxCell>
        <mxCell id="dRT8ozILV0_iqANmPN8o-176" value="EOS_parent_survey_id" style="ellipse;whiteSpace=wrap;html=1;align=center;" vertex="1" parent="1">
          <mxGeometry x="1280" y="-965" width="130" height="60" as="geometry" />
        </mxCell>
        <mxCell id="dRT8ozILV0_iqANmPN8o-181" style="edgeStyle=orthogonalEdgeStyle;rounded=0;orthogonalLoop=1;jettySize=auto;html=1;exitX=0.5;exitY=0;exitDx=0;exitDy=0;entryX=0.75;entryY=1;entryDx=0;entryDy=0;endArrow=none;endFill=0;" edge="1" parent="1" source="dRT8ozILV0_iqANmPN8o-177" target="dRT8ozILV0_iqANmPN8o-160">
          <mxGeometry relative="1" as="geometry" />
        </mxCell>
        <mxCell id="dRT8ozILV0_iqANmPN8o-177" value="EOS_report_posted" style="ellipse;whiteSpace=wrap;html=1;align=center;" vertex="1" parent="1">
          <mxGeometry x="1210" y="-855" width="160" height="55" as="geometry" />
        </mxCell>
        <mxCell id="dRT8ozILV0_iqANmPN8o-178" value="SCHEMA KEY" style="swimlane;whiteSpace=wrap;html=1;" vertex="1" parent="1">
          <mxGeometry x="195" y="-1440" width="425" height="180" as="geometry" />
        </mxCell>
        <mxCell id="dRT8ozILV0_iqANmPN8o-179" value="&lt;font color=&quot;#00cc00&quot;&gt;green lines&lt;/font&gt;: elements are not required to be filled when creating entity&amp;nbsp;" style="text;html=1;align=center;verticalAlign=middle;resizable=0;points=[];autosize=1;strokeColor=none;fillColor=none;" vertex="1" parent="dRT8ozILV0_iqANmPN8o-178">
          <mxGeometry y="30" width="400" height="30" as="geometry" />
        </mxCell>
        <mxCell id="dRT8ozILV0_iqANmPN8o-180" value="&lt;font color=&quot;#ff3333&quot;&gt;red lines&lt;/font&gt;: elements are required entries when creating entity&amp;nbsp;" style="text;html=1;align=center;verticalAlign=middle;resizable=0;points=[];autosize=1;strokeColor=none;fillColor=none;" vertex="1" parent="dRT8ozILV0_iqANmPN8o-178">
          <mxGeometry y="50" width="350" height="30" as="geometry" />
        </mxCell>
        <mxCell id="dRT8ozILV0_iqANmPN8o-182" value="Semester" style="whiteSpace=wrap;html=1;align=center;" vertex="1" parent="1">
          <mxGeometry x="1060" y="475" width="110" height="40" as="geometry" />
        </mxCell>
        <mxCell id="dRT8ozILV0_iqANmPN8o-209" style="edgeStyle=orthogonalEdgeStyle;rounded=0;orthogonalLoop=1;jettySize=auto;html=1;exitX=0.5;exitY=1;exitDx=0;exitDy=0;entryX=0.5;entryY=0;entryDx=0;entryDy=0;" edge="1" parent="1" source="dRT8ozILV0_iqANmPN8o-184" target="dRT8ozILV0_iqANmPN8o-182">
          <mxGeometry relative="1" as="geometry" />
        </mxCell>
        <mxCell id="dRT8ozILV0_iqANmPN8o-184" value="semester_id" style="ellipse;whiteSpace=wrap;html=1;align=center;" vertex="1" parent="1">
          <mxGeometry x="1110" y="320" width="100" height="40" as="geometry" />
        </mxCell>
        <mxCell id="dRT8ozILV0_iqANmPN8o-211" style="edgeStyle=orthogonalEdgeStyle;rounded=0;orthogonalLoop=1;jettySize=auto;html=1;exitX=0.5;exitY=1;exitDx=0;exitDy=0;entryX=0.25;entryY=0;entryDx=0;entryDy=0;" edge="1" parent="1" source="dRT8ozILV0_iqANmPN8o-187" target="dRT8ozILV0_iqANmPN8o-182">
          <mxGeometry relative="1" as="geometry" />
        </mxCell>
        <mxCell id="dRT8ozILV0_iqANmPN8o-187" value="first_school_day" style="ellipse;whiteSpace=wrap;html=1;align=center;" vertex="1" parent="1">
          <mxGeometry x="990" y="325" width="100" height="40" as="geometry" />
        </mxCell>
        <mxCell id="dRT8ozILV0_iqANmPN8o-198" style="edgeStyle=orthogonalEdgeStyle;rounded=0;orthogonalLoop=1;jettySize=auto;html=1;exitX=0.5;exitY=1;exitDx=0;exitDy=0;entryX=0;entryY=0.5;entryDx=0;entryDy=0;" edge="1" parent="1" source="dRT8ozILV0_iqANmPN8o-197" target="dRT8ozILV0_iqANmPN8o-182">
          <mxGeometry relative="1" as="geometry" />
        </mxCell>
        <mxCell id="dRT8ozILV0_iqANmPN8o-197" value="last_school_day" style="ellipse;whiteSpace=wrap;html=1;align=center;" vertex="1" parent="1">
          <mxGeometry x="900" y="380" width="100" height="40" as="geometry" />
        </mxCell>
        <mxCell id="dRT8ozILV0_iqANmPN8o-203" style="edgeStyle=orthogonalEdgeStyle;rounded=0;orthogonalLoop=1;jettySize=auto;html=1;exitX=0.5;exitY=0;exitDx=0;exitDy=0;entryX=0.25;entryY=1;entryDx=0;entryDy=0;" edge="1" parent="1" source="dRT8ozILV0_iqANmPN8o-199" target="dRT8ozILV0_iqANmPN8o-182">
          <mxGeometry relative="1" as="geometry" />
        </mxCell>
        <mxCell id="dRT8ozILV0_iqANmPN8o-199" value="first_tutoring_day" style="ellipse;whiteSpace=wrap;html=1;align=center;" vertex="1" parent="1">
          <mxGeometry x="1000" y="630" width="110" height="50" as="geometry" />
        </mxCell>
        <mxCell id="dRT8ozILV0_iqANmPN8o-204" style="edgeStyle=orthogonalEdgeStyle;rounded=0;orthogonalLoop=1;jettySize=auto;html=1;exitX=0.5;exitY=0;exitDx=0;exitDy=0;entryX=0.5;entryY=1;entryDx=0;entryDy=0;" edge="1" parent="1" source="dRT8ozILV0_iqANmPN8o-200" target="dRT8ozILV0_iqANmPN8o-182">
          <mxGeometry relative="1" as="geometry" />
        </mxCell>
        <mxCell id="dRT8ozILV0_iqANmPN8o-200" value="last_tutoring_day" style="ellipse;whiteSpace=wrap;html=1;align=center;" vertex="1" parent="1">
          <mxGeometry x="1120" y="630" width="110" height="50" as="geometry" />
        </mxCell>
        <mxCell id="dRT8ozILV0_iqANmPN8o-210" style="edgeStyle=orthogonalEdgeStyle;rounded=0;orthogonalLoop=1;jettySize=auto;html=1;exitX=0.5;exitY=1;exitDx=0;exitDy=0;entryX=0.75;entryY=0;entryDx=0;entryDy=0;" edge="1" parent="1" source="dRT8ozILV0_iqANmPN8o-201" target="dRT8ozILV0_iqANmPN8o-182">
          <mxGeometry relative="1" as="geometry" />
        </mxCell>
        <mxCell id="dRT8ozILV0_iqANmPN8o-201" value="spring_or_fall" style="ellipse;whiteSpace=wrap;html=1;align=center;" vertex="1" parent="1">
          <mxGeometry x="1190" y="360" width="110" height="50" as="geometry" />
        </mxCell>
        <mxCell id="dRT8ozILV0_iqANmPN8o-205" style="edgeStyle=orthogonalEdgeStyle;rounded=0;orthogonalLoop=1;jettySize=auto;html=1;exitX=0.5;exitY=0;exitDx=0;exitDy=0;entryX=0.75;entryY=1;entryDx=0;entryDy=0;" edge="1" parent="1" source="dRT8ozILV0_iqANmPN8o-202" target="dRT8ozILV0_iqANmPN8o-182">
          <mxGeometry relative="1" as="geometry" />
        </mxCell>
        <mxCell id="dRT8ozILV0_iqANmPN8o-202" value="monday_of_break" style="ellipse;whiteSpace=wrap;html=1;align=center;" vertex="1" parent="1">
          <mxGeometry x="1210" y="580" width="110" height="50" as="geometry" />
        </mxCell>
        <mxCell id="dRT8ozILV0_iqANmPN8o-212" value="Tutor_session" style="whiteSpace=wrap;html=1;align=center;" vertex="1" parent="1">
          <mxGeometry x="1750" y="-890" width="140" height="40" as="geometry" />
        </mxCell>
        <mxCell id="dRT8ozILV0_iqANmPN8o-213" style="edgeStyle=orthogonalEdgeStyle;rounded=0;orthogonalLoop=1;jettySize=auto;html=1;exitX=0.5;exitY=0;exitDx=0;exitDy=0;entryX=0.25;entryY=1;entryDx=0;entryDy=0;endArrow=none;endFill=0;" edge="1" parent="1" source="dRT8ozILV0_iqANmPN8o-214" target="dRT8ozILV0_iqANmPN8o-212">
          <mxGeometry relative="1" as="geometry" />
        </mxCell>
        <mxCell id="dRT8ozILV0_iqANmPN8o-214" value="semster_id" style="ellipse;whiteSpace=wrap;html=1;align=center;" vertex="1" parent="1">
          <mxGeometry x="1760" y="-690" width="100" height="40" as="geometry" />
        </mxCell>
        <mxCell id="dRT8ozILV0_iqANmPN8o-215" style="edgeStyle=orthogonalEdgeStyle;rounded=0;orthogonalLoop=1;jettySize=auto;html=1;exitX=0.5;exitY=0;exitDx=0;exitDy=0;entryX=0.5;entryY=1;entryDx=0;entryDy=0;endArrow=none;endFill=0;" edge="1" parent="1" source="dRT8ozILV0_iqANmPN8o-216" target="dRT8ozILV0_iqANmPN8o-212">
          <mxGeometry relative="1" as="geometry">
            <Array as="points">
              <mxPoint x="1990" y="-720" />
              <mxPoint x="1820" y="-720" />
            </Array>
          </mxGeometry>
        </mxCell>
        <mxCell id="dRT8ozILV0_iqANmPN8o-216" value="session_notes" style="ellipse;whiteSpace=wrap;html=1;align=center;" vertex="1" parent="1">
          <mxGeometry x="1930" y="-675" width="120" height="55" as="geometry" />
        </mxCell>
        <mxCell id="dRT8ozILV0_iqANmPN8o-217" style="edgeStyle=orthogonalEdgeStyle;rounded=0;orthogonalLoop=1;jettySize=auto;html=1;exitX=0;exitY=0.5;exitDx=0;exitDy=0;entryX=1;entryY=0.75;entryDx=0;entryDy=0;endArrow=none;endFill=0;" edge="1" parent="1" source="dRT8ozILV0_iqANmPN8o-218" target="dRT8ozILV0_iqANmPN8o-212">
          <mxGeometry relative="1" as="geometry" />
        </mxCell>
        <mxCell id="dRT8ozILV0_iqANmPN8o-218" value="zoom_join_link" style="ellipse;whiteSpace=wrap;html=1;align=center;" vertex="1" parent="1">
          <mxGeometry x="2000" y="-905" width="130" height="60" as="geometry" />
        </mxCell>
        <mxCell id="dRT8ozILV0_iqANmPN8o-219" style="edgeStyle=orthogonalEdgeStyle;rounded=0;orthogonalLoop=1;jettySize=auto;html=1;exitX=0.5;exitY=0;exitDx=0;exitDy=0;entryX=0.75;entryY=1;entryDx=0;entryDy=0;endArrow=none;endFill=0;" edge="1" parent="1" source="dRT8ozILV0_iqANmPN8o-220" target="dRT8ozILV0_iqANmPN8o-212">
          <mxGeometry relative="1" as="geometry" />
        </mxCell>
        <mxCell id="dRT8ozILV0_iqANmPN8o-220" value="zoom_recording_link" style="ellipse;whiteSpace=wrap;html=1;align=center;" vertex="1" parent="1">
          <mxGeometry x="1930" y="-795" width="160" height="55" as="geometry" />
        </mxCell>
        <mxCell id="dRT8ozILV0_iqANmPN8o-224" style="edgeStyle=orthogonalEdgeStyle;rounded=0;orthogonalLoop=1;jettySize=auto;html=1;exitX=0.5;exitY=1;exitDx=0;exitDy=0;entryX=0.75;entryY=0;entryDx=0;entryDy=0;endArrow=none;endFill=0;" edge="1" parent="1" source="dRT8ozILV0_iqANmPN8o-221" target="dRT8ozILV0_iqANmPN8o-212">
          <mxGeometry relative="1" as="geometry" />
        </mxCell>
        <mxCell id="dRT8ozILV0_iqANmPN8o-221" value="parent_id" style="ellipse;whiteSpace=wrap;html=1;align=center;" vertex="1" parent="1">
          <mxGeometry x="1940" y="-1000" width="100" height="50" as="geometry" />
        </mxCell>
        <mxCell id="dRT8ozILV0_iqANmPN8o-223" style="edgeStyle=orthogonalEdgeStyle;rounded=0;orthogonalLoop=1;jettySize=auto;html=1;exitX=0.5;exitY=1;exitDx=0;exitDy=0;entryX=0.5;entryY=0;entryDx=0;entryDy=0;endArrow=none;endFill=0;" edge="1" parent="1" source="dRT8ozILV0_iqANmPN8o-222" target="dRT8ozILV0_iqANmPN8o-212">
          <mxGeometry relative="1" as="geometry" />
        </mxCell>
        <mxCell id="dRT8ozILV0_iqANmPN8o-222" value="child_id" style="ellipse;whiteSpace=wrap;html=1;align=center;" vertex="1" parent="1">
          <mxGeometry x="1850" y="-1065" width="100" height="50" as="geometry" />
        </mxCell>
        <mxCell id="dRT8ozILV0_iqANmPN8o-226" style="edgeStyle=orthogonalEdgeStyle;rounded=0;orthogonalLoop=1;jettySize=auto;html=1;exitX=0.5;exitY=0;exitDx=0;exitDy=0;entryX=1;entryY=0.75;entryDx=0;entryDy=0;" edge="1" parent="1" source="dRT8ozILV0_iqANmPN8o-225" target="dRT8ozILV0_iqANmPN8o-27">
          <mxGeometry relative="1" as="geometry" />
        </mxCell>
        <mxCell id="dRT8ozILV0_iqANmPN8o-225" value="num_prev_tutors" style="ellipse;whiteSpace=wrap;html=1;align=center;" vertex="1" parent="1">
          <mxGeometry x="310" y="820" width="120" height="60" as="geometry" />
        </mxCell>
        <mxCell id="dRT8ozILV0_iqANmPN8o-227" value="tutor_session_id" style="ellipse;whiteSpace=wrap;html=1;align=center;" vertex="1" parent="1">
          <mxGeometry x="1700" y="-750" width="100" height="40" as="geometry" />
        </mxCell>
        <mxCell id="dRT8ozILV0_iqANmPN8o-228" style="edgeStyle=orthogonalEdgeStyle;rounded=0;orthogonalLoop=1;jettySize=auto;html=1;exitX=0.5;exitY=0;exitDx=0;exitDy=0;entryX=0.127;entryY=0.988;entryDx=0;entryDy=0;entryPerimeter=0;endArrow=none;endFill=0;" edge="1" parent="1" source="dRT8ozILV0_iqANmPN8o-227" target="dRT8ozILV0_iqANmPN8o-212">
          <mxGeometry relative="1" as="geometry" />
        </mxCell>
      </root>
    </mxGraphModel>
  </diagram>
</mxfile>
